<svg width="23" height="24" viewBox="0 0 23 24" fill="none" xmlns="http://www.w3.org/2000/svg">
<path d="M13.4379 12.4932V19.3988C13.4379 19.7599 13.1445 20.0533 12.7834 20.0533C12.4223 20.0533 12.1288 19.7599 12.1288 19.3988V12.4932C12.1288 12.1321 12.4223 11.8386 12.7834 11.8386C13.1445 11.8386 13.4379 12.1321 13.4379 12.4932ZM22.3169 11.5059V16.439C22.3169 17.8877 21.1387 19.067 19.6888 19.067H18.3699V20.3859C18.3699 22.379 16.7488 24 14.7558 24H4.89078C2.89769 24 1.27671 22.3789 1.27671 20.3859V8.86366C-0.0825714 7.78148 -0.293116 5.78188 0.346169 4.33636C1.2189 2.35198 3.40505 2.02253 3.83485 1.97672C4.70431 1.89273 5.59014 2.08036 6.3854 2.50036C6.85558 1.05054 8.21922 0 9.82381 0C11.4002 0 12.7431 1.01346 13.2363 2.42292C14.0741 1.92875 15.0319 1.76618 15.909 1.99418C16.7664 2.21891 17.4995 2.81019 17.973 3.6589C18.4803 4.56763 18.6166 5.65744 18.3701 6.61305V8.87888H19.689C21.1377 8.87888 22.317 10.0571 22.317 11.5069L22.3169 11.5059ZM2.27145 7.98761C2.50382 8.12943 2.74708 8.20688 2.98709 8.2407C3.69181 8.34107 4.36491 8.07052 4.60054 7.96034C4.68999 7.91779 4.78817 7.89707 4.88525 7.89707C4.89398 7.89707 4.90271 7.90034 4.91144 7.90034C4.92344 7.90034 4.93435 7.90361 4.94635 7.9047C5.0478 7.91343 5.14817 7.9407 5.23654 7.99743C5.42527 8.11743 5.54636 8.32253 5.54636 8.54615V11.0127C5.54636 11.4676 5.91618 11.8385 6.37218 11.8385C6.82709 11.8385 7.1969 11.4687 7.1969 11.0127V7.56003C7.1969 7.23493 7.4369 6.95786 7.75871 6.91203C8.07834 6.86403 8.38817 7.06367 8.4798 7.37568C8.77979 8.39897 9.74636 9.06333 10.6922 8.88988C11.3707 8.76115 11.9576 8.16223 12.1496 7.3997C12.2096 7.16188 12.3973 6.97752 12.6362 6.92189C12.8762 6.86735 13.1249 6.94916 13.2831 7.13789C13.8613 7.82189 14.7624 8.12627 15.5773 7.91352C15.8358 7.84588 16.0507 7.73025 16.234 7.59498C16.2449 7.58625 16.2602 7.57971 16.2711 7.57207C16.4566 7.42807 16.6038 7.26225 16.7217 7.1008C16.7238 7.09753 16.7282 7.09316 16.7304 7.08989C16.786 7.01243 16.8329 6.93607 16.8744 6.86298C16.8766 6.85861 16.8809 6.85316 16.8831 6.8488C16.9202 6.78225 16.9497 6.72225 16.9769 6.66552C16.9813 6.6568 16.9878 6.6448 16.9911 6.63716C17.0097 6.5968 17.0206 6.56734 17.0337 6.53461C17.0413 6.51498 17.0533 6.48989 17.0588 6.47352C17.0598 6.47025 17.0598 6.46916 17.0609 6.46589C17.0751 6.4277 17.0849 6.39716 17.0893 6.38298C17.2857 5.73716 17.1853 4.93969 16.8286 4.29935C16.5308 3.76479 16.0856 3.39606 15.5762 3.26299C14.8125 3.06335 13.9213 3.37099 13.2558 4.06808C13.0726 4.26117 12.7878 4.32335 12.5391 4.22408C12.2904 4.12481 12.1278 3.8837 12.1278 3.61644C12.1278 2.34552 11.0936 1.31134 9.82272 1.31134C8.5518 1.31134 7.51762 2.34552 7.51762 3.61644C7.51762 3.87171 7.36926 4.10407 7.13689 4.21098C6.9067 4.31789 6.63288 4.2808 6.43762 4.11389C6.09944 3.8237 5.18415 3.16372 3.96778 3.28151C3.78778 3.30115 2.13831 3.51388 1.54377 4.86661C1.09213 5.88881 1.27649 7.38661 2.27033 7.99001L2.27145 7.98761ZM17.062 8.61815C17.0555 8.62361 17.0468 8.62688 17.0391 8.63233C16.9377 8.7087 16.8188 8.77524 16.7021 8.84288C16.6421 8.87779 16.5897 8.91816 16.5264 8.94979C16.3388 9.04252 16.1337 9.12216 15.909 9.18106C14.9272 9.43852 13.8766 9.23343 13.0322 8.65851C12.5642 9.44724 11.806 10.0113 10.9322 10.1771C10.0693 10.3352 9.19982 10.0985 8.50491 9.58579V11.0138C8.50491 11.7676 8.10999 12.4276 7.51874 12.8073V19.3987C7.51874 19.7598 7.22528 20.0532 6.86417 20.0532C6.50307 20.0532 6.20961 19.7598 6.20961 19.3987V13.1315C5.10889 13.0475 4.23616 12.1355 4.23616 11.013V9.45841C4.13034 9.48241 4.01688 9.50314 3.90125 9.52168C3.86852 9.52605 3.8358 9.53041 3.80307 9.53477C3.71471 9.54568 3.62416 9.55441 3.53034 9.56095C3.49107 9.56314 3.45289 9.56532 3.41252 9.56641C3.30998 9.56968 3.20416 9.56859 3.09834 9.56205C3.07107 9.56096 3.0438 9.56096 3.01652 9.55877C2.88343 9.54895 2.74925 9.53041 2.61289 9.50313C2.60416 9.50095 2.59543 9.50095 2.58671 9.49986V20.3859C2.58671 21.6569 3.62088 22.691 4.8918 22.691H14.7569C16.0278 22.691 17.062 21.6569 17.062 20.3859L17.062 8.61815ZM21.0079 11.507C21.0079 10.7804 20.4166 10.188 19.689 10.188H18.3701V17.7577H19.689C20.4155 17.7577 21.0079 17.1665 21.0079 16.4388V11.5057V11.507Z" fill="black"/>
</svg>
