<svg width="25" height="24" viewBox="0 0 25 24" fill="none" xmlns="http://www.w3.org/2000/svg">
<path d="M24.4612 6.04917C24.4612 4.87847 24 3.70776 23.1486 2.85634C22.2972 2.00492 21.1619 1.54373 19.9557 1.54373C18.7496 1.54373 17.6143 2.00492 16.7629 2.85634L16.4081 3.2111L18.8915 5.69442H6.61679L5.09132 1.47278L0.621355 0.0182643C0.373024 -0.0526875 0.0892162 0.0892161 0.0182643 0.337548C-0.0526875 0.585879 0.0892161 0.869687 0.337548 0.940639L4.34633 2.25325L5.58799 5.69442H1.08254L10.661 15.4148V23.0776H7.36178C7.11345 23.0776 6.86512 23.2905 6.86512 23.5388C6.86512 23.7871 7.07798 24 7.36178 24H14.9536C15.202 24 15.4148 23.7871 15.4148 23.5388C15.4148 23.2905 15.202 23.0776 14.9536 23.0776H11.6189V15.3793L20.0267 6.82965L22.7938 9.59677L23.1486 9.24201C24 8.35511 24.4257 7.21988 24.4612 6.04917ZM20.3815 2.50158C20.9845 2.57253 21.5876 2.82086 22.0843 3.2111L20.3815 4.87847V2.50158ZM21.0555 5.55251L22.7583 3.84967C23.1486 4.34633 23.3614 4.94942 23.4679 5.55251H21.0555ZM19.4236 2.50158V4.87847L17.7208 3.17562C18.2529 2.82086 18.8205 2.57253 19.4236 2.50158ZM5.94275 6.61679L6.79417 8.9582H5.69442L3.353 6.61679H5.94275ZM11.1222 14.4924L6.61679 9.91605H7.46821H15.6632L11.1222 14.4924ZM16.5855 8.9582H7.7875L6.93607 6.61679H18.8915L16.5855 8.9582ZM22.7583 8.21321L21.0555 6.51036H23.4324C23.3614 7.11345 23.1486 7.71654 22.7583 8.21321Z" fill="#1D1D1B"/>
</svg>
