<?xml version="1.0" encoding="utf-8"?>
<!-- Svg Vector Icons : http://www.onlinewebfonts.com/icon -->
<!DOCTYPE svg PUBLIC "-//W3C//DTD SVG 1.1//EN" "http://www.w3.org/Graphics/SVG/1.1/DTD/svg11.dtd">
<svg version="1.1" xmlns="http://www.w3.org/2000/svg" xmlns:xlink="http://www.w3.org/1999/xlink" x="0px" y="0px" viewBox="0 0 256 256" enable-background="new 0 0 256 256" xml:space="preserve">
<metadata> Svg Vector Icons : http://www.onlinewebfonts.com/icon </metadata>
<g><g><g><path fill="#000000" d="M106.9,18.4v8.4h25.3h25.3v-8.4V10h-25.3h-25.3V18.4z"/><path fill="#000000" d="M85,35.8c-7.4,1.1-13.3,4.2-18.9,9.8c-6.8,6.8-9.8,13.9-9.8,23.5c0,10.7,2.9,17,12.1,26.6l6.1,6.4l-2.3,4.2c-1.2,2.3-3.1,6.8-4.1,10c-3.5,10.5-3.5,10.4-3.3,66.9l0.2,50.8l1.5,3c1.6,3.3,4.4,6.1,7.9,7.9l2.3,1.2h55.6h55.6l2.3-1.2c3.5-1.8,6.3-4.6,7.9-7.9l1.5-3l0.2-50.8c0.2-55.1,0.1-55.7-2.8-65.8c-1.8-6.4-6.4-15.3-10.5-20.9c-6.2-8.3-15.7-16.1-24.9-20.5l-3.8-1.8v-11v-11h8.4h8.5l-0.2-8.3l-0.2-8.3l-43.2-0.1C107.1,35.5,86.5,35.6,85,35.8z M106.9,63.1v11l-5.1,2.6c-4.5,2.3-9.9,6-15,10.3l-2,1.6l-4.5-4.7c-5.6-6-6.9-8.4-7.1-14.1c-0.2-3.7-0.1-4.7,1.1-7.1C76,59,78,56.7,81,55c3.9-2.3,6.5-2.7,16.6-2.7l9.3-0.1L106.9,63.1L106.9,63.1z M132.2,174.5v38h-25.3H81.6v-38v-38h25.3h25.3V174.5L132.2,174.5z"/></g></g></g>
</svg>