<svg width="18" height="24" viewBox="0 0 18 24" fill="none" xmlns="http://www.w3.org/2000/svg">
<path d="M17.7104 0.219274C17.586 0.0796375 17.4082 0 17.2217 0H1.51255C1.32601 0 1.14818 0.0796375 1.02382 0.219274C0.899464 0.35891 0.840552 0.544375 0.862372 0.729813L3.48055 23.4207C3.51874 23.7513 3.798 24 4.13073 24H14.6035C14.9362 24 15.2155 23.7502 15.2536 23.4207L17.8718 0.729813C17.8936 0.544359 17.8347 0.35891 17.7104 0.219274ZM16.4875 1.30908L15.8024 7.24363C14.8195 7.69745 13.8453 7.91344 12.8993 7.85563C11.6044 7.77381 10.6804 7.22182 9.70307 6.63817C8.63398 5.99997 7.52887 5.3389 5.91445 5.23744C4.87589 5.17526 3.8199 5.37053 2.76509 5.79708L2.2469 1.30805H16.4876L16.4875 1.30908ZM14.0198 22.6908H4.71447L2.9221 7.16069C3.91047 6.70578 4.89228 6.4887 5.83491 6.54433C7.12982 6.62615 8.05382 7.17814 9.03119 7.76179C10.1003 8.39999 11.2054 9.06105 12.8187 9.16251C12.9496 9.17015 13.0816 9.17451 13.2136 9.17451C14.0133 9.17451 14.8216 9.0196 15.6311 8.73053L14.0198 22.6908Z" fill="black"/>
</svg>
