<?xml version="1.0" encoding="utf-8"?>
<!-- Svg Vector Icons : http://www.onlinewebfonts.com/icon -->
<!DOCTYPE svg PUBLIC "-//W3C//DTD SVG 1.1//EN" "http://www.w3.org/Graphics/SVG/1.1/DTD/svg11.dtd">
<svg version="1.1" xmlns="http://www.w3.org/2000/svg" xmlns:xlink="http://www.w3.org/1999/xlink" x="0px" y="0px" viewBox="0 0 256 256" enable-background="new 0 0 256 256" xml:space="preserve">
<metadata> Svg Vector Icons : http://www.onlinewebfonts.com/icon </metadata>
<g><g><path fill="#000000" d="M128,10C62.7,10,10,62.7,10,128s52.7,118,118,118s118-52.7,118-118S193.3,10,128,10z M128,238.1c-60.6,0-110.1-49.6-110.1-110.1C17.9,67.4,67.4,17.9,128,17.9c60.6,0,110.1,49.6,110.1,110.1C238.1,188.6,188.6,238.1,128,238.1z"/><path fill="#000000" d="M57.2,131.9c0,8.7,7.1,15.7,15.7,15.7c8.7,0,15.7-7.1,15.7-15.7l0,0c0-8.7-7.1-15.7-15.7-15.7S57.2,123.3,57.2,131.9z"/><path fill="#000000" d="M112.3,131.9c0,8.7,7.1,15.7,15.7,15.7c8.7,0,15.7-7.1,15.7-15.7c0-8.7-7.1-15.7-15.7-15.7C119.3,116.2,112.3,123.3,112.3,131.9z"/><path fill="#000000" d="M167.3,131.9c0,8.7,7.1,15.7,15.7,15.7c8.7,0,15.7-7.1,15.7-15.7l0,0c0-8.7-7.1-15.7-15.7-15.7S167.3,123.3,167.3,131.9z"/></g></g>
</svg>