<?xml version="1.0" encoding="iso-8859-1"?>
<!-- Uploaded to: SVG Repo, www.svgrepo.com, Generator: SVG Repo Mixer Tools -->
<!DOCTYPE svg PUBLIC "-//W3C//DTD SVG 1.1//EN" "http://www.w3.org/Graphics/SVG/1.1/DTD/svg11.dtd">
<svg fill="#000000" height="800px" width="800px" version="1.1" id="Capa_1" xmlns="http://www.w3.org/2000/svg" xmlns:xlink="http://www.w3.org/1999/xlink" 
	 viewBox="0 0 475.721 475.721" xml:space="preserve">
<path d="M364.572,29.085H334.29c-24.059,0-44.094,18.808-45.611,42.819l-3.815,60.324c-3.978-4.017-8.945-7.048-14.501-8.703
	c2.395-4.662,3.756-9.939,3.756-15.531c0-14.17-8.687-26.347-21.013-31.493c2.094-4.198,3.279-8.925,3.279-13.926v-3.693
	C256.386,26.414,229.971,0,197.504,0h-11.471c-5.523,0-10,4.477-10,10s4.477,10,10,10h5.836c4.659,0,8.449,3.791,8.449,8.45
	c0,4.659-3.791,8.449-8.449,8.449h-23.904c-15.687,0-28.45,12.763-28.45,28.45c0,4.099,0.879,7.996,2.446,11.52
	c-11.881,5.339-20.18,17.277-20.18,31.125c0,5.592,1.361,10.869,3.756,15.531c-14.086,4.197-24.389,17.26-24.389,32.692
	c0,6.363,1.756,12.322,4.802,17.426c-0.167,0.186-0.339,0.367-0.493,0.566c-1.894,2.448-2.547,5.635-1.771,8.63l47.944,184.855
	c4.627,17.84,17.041,32.021,33.025,39.308l-60.575,51.073c-3.211,2.707-4.388,7.132-2.947,11.076
	c1.441,3.945,5.193,6.569,9.393,6.569h150.265c0.01,0,0.015,0,0.02,0c5.523,0,10-4.477,10-10c0-3.253-1.553-6.144-3.958-7.97
	l-57.785-48.722c18.384-6.434,32.948-21.665,38.05-41.334l47.944-184.855c0.777-2.996,0.123-6.183-1.771-8.63
	c-1.894-2.447-4.814-3.88-7.909-3.88h-2.888l6.144-97.163c0.853-13.503,12.12-24.081,25.65-24.081h30.282c5.522,0,10-4.477,10-10
	S370.095,29.085,364.572,29.085z M167.965,56.899h23.904c15.687,0,28.449-12.762,28.449-28.449c0-0.352-0.006-0.701-0.019-1.049
	c9.741,7.073,16.086,18.55,16.086,31.481v3.693c0,6.232-5.067,11.302-11.298,11.307l-57.123-0.084c-4.659,0-8.45-3.791-8.45-8.449
	C159.515,60.689,163.306,56.899,167.965,56.899z M155.893,93.882h69.17h0.015h14.93c7.781,0,14.111,6.331,14.111,14.112
	s-6.33,14.112-14.111,14.112h-84.115c-7.781,0-14.112-6.331-14.112-14.112S148.112,93.882,155.893,93.882z M135.26,142.105h20.633
	h84.115h20.633c7.781,0,14.111,6.331,14.111,14.111c0,7.781-6.33,14.112-14.111,14.112H135.26c-7.781,0-14.111-6.331-14.111-14.112
	C121.149,148.436,127.479,142.105,135.26,142.105z M157.902,455.721l47.759-40.268l47.758,40.268H157.902z M247.76,362.673
	c-4.535,17.486-20.32,29.699-38.385,29.699s-33.849-12.213-38.384-29.699l-32.847-126.646h120.474c5.522,0,10-4.477,10-10
	s-4.478-10-10-10H132.957l-6.665-25.699h8.969h125.381h31.197c0.005,0,0.01,0,0.015,0c0.003,0,0.007,0,0.01,0h0.596L247.76,362.673z
	"/>
</svg>