<svg width="19" height="24" viewBox="0 0 19 24" fill="none" xmlns="http://www.w3.org/2000/svg">
<path d="M18.2128 0.344011C18.0204 0.125583 17.7426 0 17.4512 0H1.86822C1.57707 0 1.29907 0.125314 1.10667 0.344011C0.914274 0.562976 0.825722 0.854124 0.862753 1.14313L3.70017 23.1161C3.76511 23.6211 4.1958 24 4.70564 24H14.6138C15.1231 24 15.5535 23.6211 15.619 23.1161L18.4564 1.14339C18.4937 0.854392 18.4052 0.563244 18.2128 0.344011ZM16.2984 2.02703L14.6146 15.0648C13.0883 16.2877 11.3274 16.937 9.50918 16.937C7.82723 16.937 6.18392 16.3751 4.73757 15.32L3.02154 2.0273H16.2984V2.02703ZM5.59653 21.973L5.06951 17.8886C6.46675 18.5908 7.97106 18.9643 9.50918 18.9643C11.1715 18.9643 12.7861 18.5334 14.2717 17.7201L13.7229 21.973H5.59653Z" fill="black"/>
</svg>
