<?xml version="1.0"?>
<svg xmlns="http://www.w3.org/2000/svg" viewBox="0 0 50 50">
    <path style="line-height:normal;text-indent:0;text-align:start;text-decoration-line:none;text-decoration-style:solid;text-decoration-color:#000;text-transform:none;block-progression:tb;isolation:auto;mix-blend-mode:normal" d="M 36.888672 2.0058594 L 27.888672 3.0058594 A 1.0001 1.0001 0 0 0 27.029297 3.7597656 L 24.490234 14 L 15 14 C 12.802666 14 11 15.802666 11 18 L 11 19 A 1.0001 1.0001 0 0 0 12 20 L 13.101562 20 L 16.005859 47.107422 A 1.0001 1.0001 0 0 0 17 48 L 33 48 A 1.0001 1.0001 0 0 0 33.994141 47.107422 L 36.898438 20 L 38 20 A 1.0001 1.0001 0 0 0 39 19 L 39 18 C 39 15.802666 37.197334 14 35 14 L 26.550781 14 L 28.802734 4.9160156 L 37.111328 3.9941406 L 36.888672 2.0058594 z M 15 16 L 35 16 C 36.116666 16 37 16.883334 37 18 L 13 18 C 13 16.883334 13.883334 16 15 16 z M 15.113281 20 L 34.886719 20 L 32.101562 46 L 17.898438 46 L 15.113281 20 z" font-weight="400" font-family="sans-serif" white-space="normal" overflow="visible"/>
</svg>
