<svg width="26" height="24" viewBox="0 0 26 24" fill="none" xmlns="http://www.w3.org/2000/svg">
<path d="M8.12781 3.07773C7.73317 2.02349 8.6407 0.931726 9.35719 0.202748C9.62217 -0.0633689 10.0532 -0.0690548 10.3227 0.194787C10.5911 0.459768 10.5945 0.890779 10.3307 1.16031C9.28212 2.22593 9.40381 2.59553 9.40495 2.59894C9.42315 2.64557 9.55166 2.72631 9.66538 2.79682C9.91899 2.9549 10.3022 3.19373 10.4831 3.67591C10.7799 4.46629 10.3773 5.40681 9.25255 6.54975C9.11949 6.68508 8.94208 6.75332 8.76693 6.75332C8.59407 6.75332 8.42121 6.68849 8.28816 6.55657C8.01976 6.29273 8.01635 5.86058 8.28133 5.59218C9.32876 4.52773 9.20706 4.15924 9.20593 4.15583C9.18773 4.10693 9.05808 4.02618 8.94436 3.95567C8.69075 3.7976 8.30863 3.55991 8.12781 3.07773ZM14.3337 3.95568C14.4474 4.02619 14.5759 4.10693 14.5953 4.15583C14.5964 4.15925 14.7181 4.5277 13.6707 5.59219C13.4057 5.86058 13.4091 6.29272 13.6775 6.55658C13.8105 6.6885 13.9834 6.75332 14.1563 6.75332C14.3325 6.75332 14.5088 6.68509 14.6419 6.54975C15.7666 5.40681 16.1692 4.46746 15.8724 3.67591C15.6916 3.19373 15.3094 2.95488 15.0547 2.79682C14.941 2.72631 14.8125 2.64557 14.7943 2.59894C14.7931 2.59553 14.6714 2.22594 15.72 1.16032C15.9838 0.890789 15.9804 0.459784 15.712 0.194791C15.4425 -0.0690518 15.0115 -0.0633659 14.7465 0.202752C14.0301 0.93173 13.1225 2.02349 13.5171 3.07773C13.698 3.55878 14.0801 3.79762 14.3337 3.95568ZM3.55492 3.95568C3.66864 4.02619 3.79715 4.10693 3.81649 4.15583C3.81762 4.15925 3.93931 4.5277 2.89189 5.59219C2.62691 5.86058 2.63033 6.29272 2.89872 6.55658C3.03178 6.6885 3.20465 6.75332 3.37749 6.75332C3.55377 6.75332 3.73003 6.68509 3.86311 6.54975C4.98786 5.40681 5.39044 4.46746 5.09363 3.67591C4.91281 3.19373 4.53069 2.95488 4.27594 2.79682C4.16222 2.72631 4.03371 2.64557 4.01551 2.59894C4.01437 2.59553 3.89269 2.22594 4.94124 1.16032C5.20508 0.890789 5.20167 0.459784 4.93328 0.194791C4.66261 -0.0690518 4.23274 -0.0633659 3.96775 0.202752C3.25129 0.93173 2.34376 2.02349 2.73837 3.07773C2.91919 3.55878 3.30131 3.79762 3.55492 3.95568ZM24.3235 16.4064C23.2044 17.9554 20.8208 19.1893 18.1027 19.625C17.3669 19.7444 16.6414 19.8035 15.9363 19.8035C15.8453 19.8035 15.7566 19.7955 15.6656 19.7944C15.4893 20.5655 15.379 21.3525 15.379 22.1542V23.3176C15.379 23.6941 15.0731 24 14.6967 24H3.91672C3.54028 24 3.23436 23.6941 3.23436 23.3176V22.1542C3.23436 20.2254 2.70894 18.3264 1.71384 16.6613C0.592493 14.7849 0 12.6434 0 10.4689V9.30544C0 8.929 0.305927 8.62308 0.682367 8.62308H17.9299C18.3063 8.62308 18.6123 8.929 18.6123 9.30544V10.4689C18.6123 10.5382 18.6043 10.6031 18.6032 10.6702C22.0103 10.6144 24.6396 11.945 24.9843 13.9877C25.1151 14.7928 24.8865 15.6276 24.3247 16.4066L24.3235 16.4064ZM14.0131 22.1541C14.0131 21.0486 14.1633 19.958 14.4578 18.9105C14.4578 18.9094 14.4578 18.9082 14.4589 18.9071C14.7376 17.9006 15.164 16.9101 15.7247 15.964C15.934 15.6137 16.1227 15.2509 16.2911 14.8779C16.7937 13.76 17.1065 12.5534 17.2054 11.3307C17.2361 11.0362 17.2475 10.7575 17.2475 10.4698V9.98876L1.3645 9.98648V10.4675C1.3645 12.3963 1.88992 14.2954 2.88502 15.9604C4.00637 17.8369 4.59886 19.9784 4.59886 22.1529V22.6339H14.0131V22.1529L14.0131 22.1541ZM23.6367 14.2116C23.4115 12.873 21.2052 11.9632 18.5019 12.036C18.4826 12.1793 18.4473 12.3203 18.4234 12.4624C18.3916 12.6501 18.3609 12.8377 18.3199 13.0242C18.2653 13.2756 18.1971 13.5235 18.1266 13.7714C18.0777 13.9431 18.0333 14.1149 17.9776 14.2832C17.8866 14.5573 17.7775 14.8245 17.6671 15.0918C17.6103 15.2282 17.5625 15.3681 17.5011 15.5023C17.3191 15.8992 17.1201 16.2882 16.8961 16.6635C16.6743 17.0365 16.4867 17.4197 16.3127 17.8064C16.2672 17.9088 16.224 18.0122 16.1808 18.1157C16.1364 18.2226 16.1068 18.3318 16.067 18.4387C16.6607 18.4319 17.2748 18.3796 17.8832 18.2806C20.2214 17.9053 22.3141 16.8568 23.2145 15.6104C23.5659 15.1247 23.707 14.6551 23.6353 14.2138L23.6367 14.2116Z" fill="black"/>
</svg>
